<svg xmlns="http://www.w3.org/2000/svg" version="1.0" viewBox="0 0 600 600"><path d="M183.477 76.807c-6.3 2-12 4.1-12.6 4.7-2.7 2.8-121.8 206.4-122.1 208.7-.2 1.4 1 7.8 2.5 14.2l2.7 11.6 51.4 36.1c28.3 19.9 51.7 36 52 35.9.4-.2 7.5-3.8 15.9-8.1l15.2-7.8v-21.7c0-11.9.3-42.2.7-67.4l.6-45.6 59.9-37.2 59.8-37.2v-6.1c0-3.4-.3-11.3-.7-17.6l-.6-11.4-55.2-27.3c-30.3-15.1-55.8-27.4-56.6-27.3-.8 0-6.6 1.6-12.9 3.5zm44.8 55.7 30.3 15.3-49.7 30.9-49.7 31-4.6 8-4.6 8-.5 53.2c-.3 29.2-.8 53.4-1.1 53.7-.8.8-56.5-38.2-56.2-39.3.1-.5 61.6-105.2 103-175.4.2-.4 1-.7 1.6-.6.7 0 14.8 6.9 31.5 15.2z" fill="red"/><path fill="#fff" d="M251.977 204.307c-7.7 4.3-14.4 8-15 8.2-.7.3-6.2 153.6-6.4 178.7l-.1 4.5 15 8.9 15 8.8 79.7-45.4 79.8-45.3v-35l-74.5-44.3c-41-24.3-75.6-44.9-77-45.6-2.3-1.2-3.5-.7-16.5 6.5zm70.9 72.2c25.2 15 45.8 27.7 45.9 28.3 0 .8-96.4 56.4-97 56-.1-.1.5-25.3 1.4-55.9 1.1-37 2.1-55.7 2.8-55.7.5 0 21.6 12.3 46.9 27.3z"/><path d="m470.177 325.107-50.8 35.7-64.5 34.9-64.4 34.9v35.6l47.8 23.6c26.2 12.9 53.4 26.3 60.5 29.6l12.7 6.1 13-3.9 13-3.9 56.6-101.4c31.1-55.7 56.2-101.7 55.7-102.1-4.6-4.5-27.9-25-28.3-25-.3.1-23.4 16.2-51.3 35.9zm-27.3 101.2c-16.4 29.4-30.1 53.8-30.5 54.3-.4.4-16.1-6.7-34.8-16-18.8-9.2-33.8-17.1-33.4-17.5.5-.4 22.4-12.4 48.8-26.7 38.2-20.6 51.2-28.2 63.5-36.9 8.5-6.1 15.6-10.9 15.8-10.8.2.2-13.1 24.3-29.4 53.6z" fill="#00f"/></svg>